<?xml version='1.0' encoding='utf-8'?>
<svg xmlns="http://www.w3.org/2000/svg" width="1087px" height="778px" version="1.1" viewBox="-10 652 1087 778"> <g fill="#547eab"> <path d="m-15.786 647.43c-0.22552 0-0.44196 0.0896-0.6015 0.24927-0.15948 0.1594-0.24914 0.37573-0.24914 0.6013l6.1e-4 785.43c0 0.4698 0.38092 0.8509 0.85071 0.8509l1098.6 6e-4c0.2254 0 0.4419-0.0896 0.6014-0.2493 0.1593-0.1594 0.2492-0.376 0.2492-0.6016l-8e-4 -785.43c0-0.46983-0.3808-0.85073-0.8506-0.85073l-1098.6-7.7e-4z"/> </g> <g> <path d="m417.75 1111.8 1.0088 12.256-3.7187 0.895-5.3534 2.3809q-2.8733 2.0107-4.5977 2.4924-0.95177 0.2949-2.0169 0.3606-3.6708 0.0095-3.9769 0.0715-1.3373 0.2334-1.7841 0.4329-1.1222 0.6045-1.7217 1.4546-0.43628 0.5224-2.1883 3.551l-0.6134 0.8135q-0.67224 0.7712-1.5629 0.9697-2.2701 0.3664-4.0842-1.8152-0.646-0.5427-1.017-5.8599-0.36487-4.2146 0.11993-6.0449 0.48737-2.1059 1.7746-3.6965 1.6188-1.7908 4.3109-3.4614 1.436-0.8936 2.9556-1.7496 3.7263-1.3684 4.4656-2.0654l0.61113-0.6448q0.9441-2.0327 1.0381-2.0923 0.40265-0.5314 1.231-1.0988 1.2662-0.7227 2.159-0.8958 2.2015-0.3076 3.2496-0.0632 2.774 0.3894 9.711 3.8096z"/> <path d="m610.05 1069.6-0.072-2.0781-1.0021-12.996q3.503-0.3667 6.2542-2.2686 0.83945-0.5203 3.01-2.6018 1.5606-1.53 4.5052-4.8359 0.69825-0.5267 0.9376-0.8204 0.5203-0.54 0.6615-1.5073l0.0187-0.7307q-0.41235-3.5852-0.27905-3.5808-0.04225-0.7793 0.65088-1.6699 0.78052-0.8782 2.7681-1.0203 1.3198-0.1204 2.3882 0.8682 0.4928 0.573 0.83433 1.2644l0.72632 2.2475q0.72632 2.2478 0.88379 4.7005 0.13416 2.4612-0.77454 5.2973-0.9104 3.0816-4.1907 9.3853-0.1977 0.5969-0.3115 1.3081-0.5892 4.3769-1.0374 6.0569-0.69495 2.5874-1.5634 3.4678-1.2596 1.4077-3.7993 1.2736-0.25673 0.2396-10.609-1.76z"/> <path d="m484.13 1028.8-1.0819 0.4229q-9.9102 3.8452-12.389 5.2568-0.89106 0.4483-2.5248 1.5076-4.4409 3.1533-5.3172 3.6892-1.2123 0.7854-2.411 1.3762-1.5261 0.8577-3.8774 1.011-2.0204 0.3171-10.525-2.7861l-4.3266-4.763 1.7105-3.5947 4.4161-1.6257 2.2661 0.5659 1.9381-0.1699 1.6437 1.7121 0.01629 1.6053 3.993 2.009 9.7867-9.1914 2.909-2.635q4.014-3.4846 6.4687-4.781 2.3234-1.4382 7.1113-2.7434 3.5728-0.96876 12.912-2.4072l-12.718 15.541z"/> <path d="m465.11 1059.5-0.08869-0.3318q-0.71948-2.1194 0.35053-4.0032 5.2612-6.594 6.435-8.6846l10.572-18.578q2.9409-4.7361 4.1632-6.1602 3.7501-5.8 18.489-14.909 7.8488-4.9207 10.922-5.5755 3.7439-0.91724 9.3055-0.40967l2.9601-0.67967 8.4228 14.788-3.5702 1.822q0.73169 1.8245 0.266 2.7537-0.19456 0.56567-1.3341 1.8191-5.0222 11.304-7.122 15.264-2.3239 4.3662-3.5631 5.9307-1.1893 1.7783-3.9564 4.3303-1.856 1.7246-7.0614 5.3147-2.3504 3.0197-3.4844 3.9804-0.35339 0.4827-3.8854 2.726l-1.0264 0.928q-1.6772 1.9895-2.6265 6.6904l-34.168-7.0168z"/> <path d="m609.58 1055.6 3.5653-0.512q4.1073 5.5071 3.3162 7.4561-1.1748 3.1489-6.0891 5.7844-2.5806-0.812-7.933-0.2695-4.643 0.4436-24.928 4.1669-4.0626 0.6258-5.8554 0.6116-3.4782-0.0239-6.2446-0.6413l-11.182-2.5769-3.3246-0.6306q-3.7852-0.5-5.5569 0.0534-0.9487 0.2437-1.7717 0.5532l-17.561 13.552q-1.419 1.0944-10.945 3.8647-5.428 4.1372-16.031 9.3265-1.2075-0.9106-0.91163-3.07l2.5027-11.637q0.37768-0.159-0.29138-9.0059 0.09094-1.7937 1.3861-6.3975 4.2751-3.8231 9.0965-5.3638 3.8258-1.3807 9.2416-2.8152 19.863-5.0032 22.386-6.0059 1.4994-0.4214 2.9007-0.5227 2.0789-0.1526 4.8425 0.686 3.2292 0.9554 9.2195 3.6475l24.789 1.5876q11.358 0.6238 15.446 0.2564 4.3721-0.2463 9.9344-2.0974z"/> <path d="m485.9 1077.4 0.38391 0.6736q2.59 4.2456 3.3608 8.6428 0.75806 3.805 0.26598 14.277l-2.6464 15.814-1.2818 4.8697q-2.0643 6.4631-5.1128 7.7309-3.0172 1.9827-13.381 0.8616l-6.2305-2.6345q-6.2258 0.7808-11.191 0.1768-2.2268-0.2991-4.6276-0.9227l-11.637-3.2751q-3.1315-0.7175-5.7518-0.9136-5.7338-0.4707-12.96 1.4593l-1.0615-6.3726-3.3022-0.1343q-0.08331-5.2546 1.9556-5.7627 0.64673-0.2019 1.737-0.1045l2.5713 0.4466q-0.15984 0.1169 0.01513 0.1591 0.44403 0.0018 0.81769-0.0612 16.708-3.3138 23.732-4.1656 7.2307-0.9318 12.08-0.3667 5.6561 0.6395 11.429 3.51-1.3843-3.676-1.8459-6.7343-0.28132-0.4771-0.40694-10.581-0.12213-1.7939-0.8435-4.7942 1.5355-4.0173 2.8465-6.0351 3.4485-5.4891 11.672-7.6949 6.5715-1.934 9.413 1.9309z"/> <path d="m461.82 1090.1-0.28918-0.8906q-3.1372-8.427-2.0383-15.972 0.28297-2.5524 1.2701-5.5512 0.3087-1.0799 2.0642-4.1123l0.38055-1.0098q0.34503-1.0259 0.43323-3.7691 1.2565-0.8757 1.7587-1.1577 2.1801-1.3606 5.4332-1.771 4.4388-0.427 7.7382 0.3909 2.2665 0.4236 6.0203 2.3428 4.3796 2.4294 7.6323 4.6877 1.572 0.9168 2.2246 1.138 2.4037 0.8969 5.4949 0.5891l-0.46264 1.4907 2.4757-0.6477q-0.44727 3.2727-0.62 5.4307l-0.98547 13.939q-0.43836 4.5793-1.3074 10.945l-9.3539 2.394q0.79883-8.3164-2.024-15.456-2.383-5.6585-7.4418-6.4898-5.9848-0.7536-10.872 2.9192-4.1755 3.0984-7.5309 10.561z"/> <path d="m529.59 1021.8 0.84753 0.05857q5.407 0.32837 7.2544 1.0349 1.6943 0.1936 19.791 8.5652l14.449 3.625q7.4127-1.0266 9.1978-0.8987 3.1974 0.0869 4.0941 0.7436 1.3422 0.7752 1.8635 2.1131 0.45033 0.9624 0.7898 3.3274l0.9506 2.8288 2.4841 0.6106-0.4614 2.0032-2.581 0.7141-3.5688 2.9771-4.4314 0.549-0.6833-1.9468-1.6446 0.9773-1.2336-2.198q-2.0994-0.3996-3.2109-0.9628-1.3128-0.7268-2.3186-2.3753-4.5199-2.1794-5.7583-2.3523-2.2921-0.5034-4.6278-0.5325-2.4403-0.1206-10.466 0.1475l-7.1728-0.5115q-5.9717-0.3554-11.383-2.0722l-11.019-6.7259 8.8399-9.6994z"/> <path d="m495.76 1019.4-1.3e-4 2.5e-4 -1.2e-4 -2.5e-4 2.5e-4 2.5e-4z"/> <path d="m417.7 1110.9 6e-5 2e-4 0.90161 23.233q21.431-3.123 42.861-6.247l-43.762-16.987z"/> <path d="m602.15 1053.9 3.257 22.007q-38.836-0.8694-77.672-1.7385 10.38-10.3 20.76-20.601l53.655 0.3321z"/> <path d="m479.11 1036.3-32.16 45.269 36.617 10.395q25.281-26.892 35.512-41.359 6.4625-9.4401 8.392-16.294 1.8739-5.8637 2.1333-14.64l-50.494 16.63z"/> <path d="m569.41 1031.9v5e-4l-2.4994 13.295q-22.96-3.4751-45.919-6.9505 3.5507-7.6999 7.1019-15.399l41.317 9.0544z"/> <path d="m459.53 1032.5 5e-5 2e-4 4.7924 10.822q11.641-8.4275 23.282-16.855-2.3899-4.5081-4.7797-9.0156l-23.294 15.049z"/> <path d="m542.41 971.67q-3.8009-1.4151-6.7662-0.26024-0.40149 0.04186-4.452 2.1821-4.7815 1.6121-5.1489 2.007-1.816 1.0641-2.8069 3.0459-3.043 6.5326-2.1195 15.985 0.2095 2.0037 0.61976 4.177l4.1026 4.6177q11.016-3.6353 15.287-6.8745 2.184-1.5664 4.2631-3.9622 1.2467-1.3281 5.0178-6.726 0.61754-0.8125 1.235-1.4494 1.4174-1.5198 3.4779-2.2036-0.074-2.6623-3.0916-5.0467-4.5872-3.6175-9.6017-5.4855z"/> <path d="m551.51 983.75q-4.8551 0.06663-5.7886 1.2151-0.92517 0.83034-0.86804 3.6096l-3.0053 1.8867-1.3008 4.1599-2.1697-0.1543q-0.59555-3.7476-1.1464-4.5613-0.6254-1.0366-1.9417-0.5791-1.5918 0.53885-2.348 1.7227-0.53907 0.7312-0.56397 3.3227-0.13063 0.45776-0.58483 0.86986-0.6033 0.7888-7.3101 4.1775l9.6079 13.906 5.4602-2.613 3.6389-0.40114q3.6827 1.6189 4.5631 0.98264 1.0064-0.425 0.68906-4.3003 1.3923-1.5708 1.4015-2.1887 0.1106-0.7146-1.0226-1.6887 1.664 0.12865 2.0261-0.41944 0.4707-0.49026 0.4181-2.6712 2.8734 0.3013 2.8432-0.5471 0.07275-0.4099-0.36829-1.3513l-2.2869-4.3543 0.07653-1.1479q0.79847-1.3169 0.76307-2.8362 0.03784-1.4548-0.7793-6.0183z"/> </g> <g fill="#fa5757" fill-opacity=".07451"> <path d="m536.57 1003.6-2.6631 9.5594 8.8318-3.0596q-2.7988-2.0046-3.9515-3.26-1.1106-1.1687-2.213-3.2317z"/> </g> <g fill-opacity=".99608"> <path d="m553.87 987.93-6.1e-4 7e-4 2.5e-4 2.5e-4 3.6e-4 -9.5e-4z"/> </g> <g> <path d="m1017.5 1171.5-40.058 60.819-297.36 0.0874-72.537 202.19 475.21 3e-4c0.2254 0 0.4419-0.0896 0.6014-0.2493 0.1593-0.1594 0.2492-0.376 0.2492-0.6016l-3e-4 -260.88-6.9936 12.741-59.114-14.111z"/> <path d="m40.304 1176.1-56.94 13.592 1.83e-4 243.98c0 0.4698 0.38092 0.8509 0.85071 0.8509l464.36 5e-4 -70.86-197.51-297.36-0.0881-40.058-60.82z"/> </g> <g fill="#1e354f"> <path d="m165.22 1143.8q1.8827 0 2.8831 0.1765 6.4132 1.1182 6.4132 16.18v50.423q0 0.177 0 0.4118 0 13.827-3.8243 16.769-1.2946 1.0591-2.4124 1.1767-1.059 0.2361-3.589 0.2361-2.4711 0-4.2362-1.4128-3.4715-2.7063-3.4715-16.71 0-0.2349 0-0.4709v-50.482q0-7.9426 1.4711-11.414 1.412-3.4707 3.1771-4.1773 1.7064-0.7058 3.589-0.7058zm-49.541-10.297q-6.8839 0-10.708 2.4709-2.0004 1.2945-3.9421 3.4131-5.0599 5.5891-5.0599 29.83v6.3541h11.885v-13.473q0-14.945 4.2362-17.534 1.1178-0.7061 2.9418-0.7061 1.7652 0 3.0595 1.2944 1.2946 1.2359 2.177 5.1778 0.88263 3.9421 0.88263 10.12 0 6.1779-1.2355 12.18-1.1768 6.001-3.1183 9.5906-0.76483 1.0586-4.5305 8.3545-3.7657 7.2959-3.8244 7.3545-11.767 22.829-11.767 34.537v5.7661h34.42v-9.1196h-22.652q2.0592-12.709 10.355-27.065 3.2949-5.7662 6.531-11.768 7.3546-13.885 7.3546-28.124 0-28.653-17.004-28.653zm106.32 2e-4q-6.8839 0-10.708 2.471-2.0004 1.2944-3.942 3.4126-5.06 5.5896-5.0599 29.83v6.3545h11.885v-13.474q0-14.945 4.2362-17.533 1.118-0.706 2.942-0.706 1.7651 0 3.0595 1.2944 1.2944 1.2353 2.177 5.1777 0.88251 3.9417 0.88251 10.12 0 6.178-1.2354 12.179-1.1768 6.0015-3.1185 9.5906-0.76489 1.0591-4.5304 8.355-3.7655 7.2954-3.8244 7.3544-11.768 22.828-11.768 34.537v5.7661h34.42v-9.1197h-22.652q2.0593-12.709 10.355-27.065 3.2949-5.7661 6.5309-11.768 7.3546-13.885 7.3546-28.124 0-28.653-17.004-28.653zm49.894 0q-10.65 0-15.18 6.5899-4.5303 6.5893-4.5303 20.534v2.6477h11.944v-2.4712q0-9.5906 1.8827-13.297 1.824-3.6474 5.8838-3.6474 4.0009 0 6.2956 3.236 2.2945 3.2361 2.2945 13.532 0 0.1765 0 0.353 0 13.827-4.5303 16.651-2.2358 1.4124-6.5898 1.4124h-3.236v9.7077h3.3536q6.2367 0 8.7079 4.5894 2.4123 4.5303 2.4123 15.827 0 11.238-1.8239 15.592-1.7651 4.3542-6.9428 4.3542-5.1188 0-6.6486-3.8244-1.4709-3.7659-1.4709-14.768v-4.7657h-11.767v4.5892q0 15.062 4.4715 22.064 4.4717 7.0019 15.357 7.0019 10.885 0 15.886-7.2959 5.0012-7.2959 5.0012-22.417 0-21.122-10.708-26.005 10.473-3.8833 10.473-23.064 0-13.65-4.9421-20.416-4.9424-6.7073-15.592-6.7073zm-106.26-0.059q-12.12 0-16.474 6.8247-4.2951 6.7666-4.2951 20.534v49.482q0 14.415 4.2362 21.829 4.2364 7.355 16.651 7.355 12.356 0 16.651-7.4731 4.2363-7.4126 4.2363-21.711v-49.482q0-13.826-4.4128-20.593-4.4127-6.7663-16.592-6.7663z"/> </g> <g fill="#1e354f"> <path d="m955.7 1150.3v53.895h-14.474l14.474-53.895zm-110.14-11.355q1.8828 0 2.883 0.1763 6.4133 1.1181 6.4133 16.18v50.424q0 0.1765 0 0.4119 0 13.827-3.8244 16.768-1.2946 1.0589-2.4122 1.1765-1.0592 0.2356-3.5891 0.2356-2.4712 0-4.2362-1.4121-3.4714-2.7065-3.4714-16.71 0-0.2352 0-0.4705v-50.482q0-7.9429 1.4709-11.414 1.412-3.4712 3.1773-4.1773 1.7062-0.706 3.5889-0.706zm-49.541-10.297q-6.8838 0-10.708 2.4712-2.0004 1.2945-3.942 3.4126-5.06 5.5894-5.06 29.831v6.3542h11.885v-13.474q0-14.945 4.2362-17.533 1.1179-0.7061 2.9419-0.7061 1.7652 0 3.0596 1.2947 1.2944 1.2351 2.177 5.1772 0.88243 3.9422 0.88243 10.12 0 6.1777-1.2356 12.179-1.1765 6.0017-3.1183 9.5906-0.76489 1.0593-4.5305 8.3547-3.7654 7.2959-3.8245 7.355-11.767 22.829-11.767 34.537v5.7661h34.42v-9.1199h-22.652q2.0594-12.709 10.355-27.065 3.2948-5.7662 6.5309-11.767 7.3546-13.886 7.3546-28.124 0-28.654-17.004-28.654zm106.32 0q-6.8839 0-10.708 2.4712-2.0005 1.2945-3.942 3.4126-5.06 5.5894-5.06 29.831v6.3542h11.885v-13.474q0-14.945 4.2365-17.533 1.1176-0.7061 2.9418-0.7061 1.7652 0 3.0594 1.2947 1.2946 1.2351 2.1769 5.1772 0.88267 3.9422 0.88267 10.12 0 6.1777-1.2356 12.179-1.1768 6.0017-3.1183 9.5906-0.7648 1.0593-4.5305 8.3547-3.7656 7.2959-3.8244 7.355-11.767 22.829-11.767 34.537v5.7661h34.42v-9.1199h-22.652q2.0594-12.709 10.355-27.065 3.2946-5.7662 6.5309-11.767 7.3546-13.886 7.3546-28.124 0-28.654-17.004-28.654zm51.894 1.118-23.005 75.547v8.531h24.476v19.593h11.061v-19.593h8.5311v-9.6492h-8.5311l1.4e-4 -74.429zm-108.26-1.1768q-12.12 0-16.474 6.825-4.2951 6.7666-4.2951 20.534v49.482q0 14.416 4.2362 21.829 4.2362 7.3547 16.651 7.3547 12.356 0 16.651-7.4724 4.2363-7.4133 4.2363-21.711v-49.482q0-13.827-4.4128-20.593-4.4126-6.7661-16.592-6.7661z"/> </g> <g> <path d="m947.42 1150.8v53.895h-14.474l14.474-53.895zm-110.14-11.355q1.8828 0 2.8831 0.1762 6.4132 1.118 6.4132 16.18v50.423q0 0.1766 0 0.4119 0 13.827-3.8244 16.769-1.2945 1.0589-2.4123 1.1765-1.0591 0.2356-3.5891 0.2356-2.4712 0-4.2361-1.4121-3.4716-2.7065-3.4716-16.71 0-0.2354 0-0.4708v-50.482q0-7.9429 1.4711-11.415 1.412-3.4712 3.1772-4.1772 1.7062-0.7058 3.5889-0.7058zm-49.54-10.297q-6.8839 0-10.708 2.471-2.0003 1.2947-3.9421 3.4128-5.06 5.5894-5.06 29.83v6.3542h11.885v-13.474q0-14.945 4.2362-17.534 1.1179-0.7058 2.9418-0.7058 1.7653 0 3.0597 1.2944 1.2945 1.2354 2.177 5.1773 0.88247 3.9421 0.88247 10.12 0 6.1777-1.2357 12.179-1.1765 6.0017-3.1182 9.5906-0.765 1.0593-4.5306 8.3547-3.7654 7.2959-3.8244 7.355-11.767 22.829-11.767 34.537v5.7661h34.419v-9.1194h-22.652q2.0595-12.709 10.355-27.065 3.2948-5.7661 6.531-11.767 7.3545-13.886 7.3545-28.124 0-28.654-17.004-28.654zm106.32 0q-6.8839 0-10.708 2.471-2.0004 1.2947-3.942 3.4128-5.0599 5.5894-5.0599 29.83v6.3542h11.885v-13.474q0-14.945 4.2363-17.534 1.1178-0.7058 2.9419-0.7058 1.7651 0 3.0594 1.2944 1.2946 1.2354 2.1768 5.1773 0.8826 3.9421 0.8826 10.12 0 6.1777-1.2355 12.179-1.1769 6.0017-3.1183 9.5906-0.76489 1.0593-4.5306 8.3547-3.7656 7.2959-3.8244 7.355-11.767 22.829-11.767 34.537v5.7661h34.42v-9.1194h-22.652q2.0594-12.709 10.355-27.065 3.2947-5.7661 6.5308-11.767 7.3546-13.886 7.3546-28.124 0-28.654-17.004-28.654zm51.894 1.118-23.005 75.547v8.5312h24.476v19.593h11.061v-19.593h8.5314v-9.6489h-8.5314l1.4e-4 -74.429zm-108.26-1.1768q-12.12 0-16.474 6.825-4.2949 6.7666-4.2949 20.534v49.482q0 14.415 4.2361 21.829 4.2362 7.3545 16.651 7.3545 12.356 0 16.651-7.4722 4.2364-7.4133 4.2364-21.711v-49.482q0-13.827-4.4128-20.593-4.4127-6.7661-16.592-6.7661z"/> </g> <g> <path d="m159.81 1144q1.8827 0 2.8831 0.1762 6.4132 1.1185 6.4132 16.18v50.423q0 0.1767 0 0.4118 0 13.827-3.8244 16.768-1.2946 1.0594-2.4124 1.1768-1.059 0.2358-3.589 0.2358-2.4711 0-4.2361-1.4126-3.4715-2.706-3.4715-16.709 0-0.2349 0-0.4707v-50.482q0-7.9428 1.4711-11.414 1.412-3.4712 3.1771-4.1775 1.7064-0.7058 3.589-0.7058zm-49.541-10.297q-6.884 0-10.708 2.4712-2.0004 1.2942-3.9422 3.4129-5.0599 5.5891-5.0599 29.831v6.354h11.885v-13.474q0-14.945 4.2362-17.534 1.1178-0.706 2.9418-0.706 1.7652 0 3.0594 1.2944 1.2946 1.2356 2.1771 5.1777 0.88257 3.9424 0.88257 10.12 0 6.1782-1.2355 12.18-1.1769 6.001-3.1183 9.5903-0.76489 1.0591-4.5306 8.3548-3.7656 7.2961-3.8244 7.3545-11.767 22.829-11.767 34.537v5.7661h34.42v-9.1196h-22.652q2.0592-12.709 10.355-27.065 3.2949-5.7662 6.531-11.768 7.3546-13.886 7.3546-28.124 0-28.654-17.004-28.654zm106.32 3e-4q-6.8838 0-10.708 2.4712-2.0004 1.2942-3.942 3.4123-5.0601 5.5896-5.0599 29.831v6.3545h11.885v-13.474q0-14.945 4.2362-17.533 1.118-0.7061 2.9419-0.7061 1.7651 0 3.0596 1.2944 1.2944 1.2352 2.177 5.1778 0.88245 3.9419 0.88245 10.12 0 6.1782-1.2354 12.179-1.1768 6.0017-3.1185 9.5906-0.7649 1.0596-4.5304 8.3552-3.7655 7.2957-3.8244 7.3545-11.768 22.828-11.768 34.537v5.7661h34.42v-9.1196h-22.652q2.0593-12.709 10.355-27.065 3.295-5.7661 6.5309-11.768 7.3546-13.886 7.3546-28.124 0-28.654-17.004-28.654zm49.894 0q-10.65 0-15.18 6.5898-4.5302 6.5896-4.5302 20.534v2.6474h11.944v-2.4709q0-9.5906 1.8827-13.297 1.824-3.6477 5.8838-3.6477 4.0009 0 6.2955 3.2361t2.2946 13.532q0 0.1765 0 0.353 0 13.827-4.5304 16.651-2.2357 1.4124-6.5897 1.4124h-3.236v9.708h3.3536q6.2368 0 8.7079 4.5893 2.4124 4.5306 2.4124 15.827 0 11.238-1.824 15.591-1.7651 4.3545-6.9428 4.3545-5.1188 0-6.6485-3.8242-1.4709-3.7661-1.4709-14.768v-4.7659h-11.767v4.5894q0 15.062 4.4716 22.063 4.4717 7.002 15.357 7.002 10.885 0 15.886-7.2959 5.0013-7.2959 5.0013-22.417 0-21.122-10.708-26.005 10.473-3.8835 10.473-23.064 0-13.65-4.9422-20.416-4.9423-6.7073-15.592-6.7073zm-106.26-0.0591q-12.12 0-16.474 6.825-4.2951 6.7663-4.2951 20.534v49.482q0 14.415 4.2362 21.829 4.2363 7.3547 16.651 7.3547 12.356 0 16.651-7.4726 4.2362-7.4129 4.2362-21.711v-49.482q0-13.826-4.4128-20.593-4.4127-6.7664-16.592-6.7664z"/> </g> <g fill="#161718" fill-opacity=".99608"> <path d="m301.78 850.26-1.2e-4 4.9e-4v4.6e-4 -4.6e-4l1.2e-4 -4.9e-4 -1.2e-4 4.9e-4v4.6e-4q0-4.6e-4 1.2e-4 -9.5e-4"/> <path d="m300.56 833.62v4.8e-4l-1.2e-4 -2.5e-4 1.2e-4 -2.3e-4v4.8e-4 -4.8e-4l-1.2e-4 2.3e-4q1.2e-4 -2.3e-4 1.2e-4 -2.3e-4"/> <path d="m264.54 850.8-2.5e-4 9.7e-4v-4.8e-4 -4.9e-4l2.5e-4 9.7e-4 -2.5e-4 -9.7e-4v4.9e-4q0-4.9e-4 2.5e-4 -4.9e-4"/> </g> <g fill="#fefefe"> <path d="m750.32 817.62c0.9722 22.017-16.088 40.653-38.105 41.625-22.017 0.9719-40.653-16.088-41.625-38.105-0.97207-22.017 16.088-40.653 38.104-41.625 22.017-0.97226 40.653 16.088 41.626 38.104z"/> </g> <g fill="#c8d5e4"> <path d="m935.52 904.16c0.40528-1.4153 0.61194-2.8786 0.61424-4.3644 0.01467-8.7863-7.1211-15.945-15.907-15.96-3.6552-0.00685-7.228 1.2564-10.06 3.5564-2.5187 2.0452-4.3622 4.828-5.2642 7.9182-5.8781-0.55896-11.2 3.1625-12.87 8.6051-0.8899-0.20437-1.7991-0.30847-2.7161-0.30967-6.7618-0.0115-12.272 5.4408-12.284 12.202-0.0112 6.7618 5.4802 12.232 12.243 12.244l42.812 0.07215c6.7618 0.01185 12.272-5.4406 12.283-12.203 0.00926-5.532-3.6441-10.266-8.8522-11.761z"/> </g> <g fill="#fff" fill-opacity=".67843"> <path d="m542.32 851.46c-0.55296-2.0019-0.82456-4.0694-0.8086-6.1654 0.09744-12.396 10.26-22.401 22.656-22.304 5.157 0.03931 10.18 1.8696 14.145 5.1527 3.5257 2.9192 6.089 6.87 7.3203 11.242 8.3005-0.7102 15.759 4.6123 18.042 12.312 1.2582-0.27627 2.5422-0.41077 3.836-0.40017 9.5394 0.075 17.241 7.8412 17.166 17.381-0.07505 9.5404-7.8958 17.184-17.436 17.11l-60.402-0.4723c-9.5398-0.0747-17.24-7.8414-17.166-17.382 0.06128-7.8043 5.2789-14.434 12.646-16.474z"/> </g> <g fill="#c8d5e4"> <path d="m114.54 833c-0.38147-1.4216-0.56372-2.888-0.54181-4.3738 0.1319-8.785 7.3857-15.825 16.171-15.693 3.6547 0.05406 7.2058 1.3766 9.9991 3.7238 2.4842 2.0867 4.2809 4.8999 5.1315 8.0048 5.8867-0.46179 11.146 3.348 12.725 8.8176 0.89307-0.18935 1.804-0.2781 2.7208-0.2642 6.7607 0.10134 12.179 5.6446 12.079 12.405-0.10132 6.7617-5.6832 12.14-12.444 12.039l-42.807-0.6406c-6.761-0.1011-12.179-5.6453-12.078-12.406 0.08289-5.5314 3.8146-10.203 9.0464-11.612z"/> </g> </svg>